<svg id="Layer_1" data-name="Layer 1" xmlns="http://www.w3.org/2000/svg" xmlns:xlink="http://www.w3.org/1999/xlink" viewBox="0 0 1024 1024"><defs><style>.cls-1{fill:#c7b2b2;}.cls-2{fill:#d4b4e0;}.cls-3{fill:#e0a8c4;}.cls-4{fill:#9de0c3;}.cls-5{fill:#e5e5e5;}.cls-6{fill:#fff;}.cls-7{fill:#333;}.cls-8{fill:url(#linear-gradient);}.cls-9{fill:url(#linear-gradient-2);}.cls-10{fill:url(#linear-gradient-3);}.cls-11{fill:url(#linear-gradient-4);}.cls-12{fill:url(#linear-gradient-5);}</style><linearGradient id="linear-gradient" x1="357.73" y1="352.05" x2="382.38" y2="352.05" gradientUnits="userSpaceOnUse"><stop offset="0" stop-color="#c7b2b2"/><stop offset="0.04" stop-color="#bfbbb5"/><stop offset="0.15" stop-color="#b0ccbb"/><stop offset="0.29" stop-color="#a5d7c0"/><stop offset="0.47" stop-color="#9fdec2"/><stop offset="1" stop-color="#9de0c3"/></linearGradient><linearGradient id="linear-gradient-2" x1="357.73" y1="352.05" x2="644.96" y2="352.05" gradientUnits="userSpaceOnUse"><stop offset="0" stop-color="#c7b2b2"/><stop offset="0.09" stop-color="#c7b2b2"/><stop offset="0.1" stop-color="#c7b2b2"/><stop offset="0.12" stop-color="#bfbbb5"/><stop offset="0.16" stop-color="#b0ccbb"/><stop offset="0.21" stop-color="#a5d7c0"/><stop offset="0.29" stop-color="#9fdec2"/><stop offset="0.5" stop-color="#9de0c3"/><stop offset="0.57" stop-color="#9de0c3"/><stop offset="1" stop-color="#9de0c3"/></linearGradient><linearGradient id="linear-gradient-3" x1="395.94" y1="300.89" x2="606.74" y2="300.89" gradientUnits="userSpaceOnUse"><stop offset="0" stop-color="#e0a8c4"/><stop offset="0.09" stop-color="#e0a8c4"/><stop offset="0.1" stop-color="#e0a8c4"/><stop offset="0.12" stop-color="#ddabcc"/><stop offset="0.18" stop-color="#d8b0d7"/><stop offset="0.27" stop-color="#d5b3de"/><stop offset="0.5" stop-color="#d4b4e0"/><stop offset="0.57" stop-color="#d4b4e0"/><stop offset="1" stop-color="#d4b4e0"/></linearGradient><linearGradient id="linear-gradient-4" x1="494.56" y1="199.19" x2="506.89" y2="199.19" xlink:href="#linear-gradient-3"/><linearGradient id="linear-gradient-5" x1="487.17" y1="137.55" x2="514.29" y2="137.55" gradientUnits="userSpaceOnUse"><stop offset="0" stop-color="#8f0000"/><stop offset="0.06" stop-color="#8f0202"/><stop offset="0.08" stop-color="#8e0909"/><stop offset="0.09" stop-color="#8d1414"/><stop offset="0.1" stop-color="#8c1f1f"/><stop offset="0.1" stop-color="#901f1f"/><stop offset="0.13" stop-color="#ab2121"/><stop offset="0.16" stop-color="#c12323"/><stop offset="0.2" stop-color="#d22424"/><stop offset="0.25" stop-color="#dd2424"/><stop offset="0.32" stop-color="#e42525"/><stop offset="0.5" stop-color="#e62525"/><stop offset="0.52" stop-color="#eb2626"/><stop offset="0.6" stop-color="#f62828"/><stop offset="0.7" stop-color="#fd2929"/><stop offset="1" stop-color="#ff2929"/></linearGradient></defs><path class="cls-1" d="M863.28,823.08A86.79,86.79,0,0,1,796,855H230.15a86.92,86.92,0,0,1-86.92-86.92V448.83a86.81,86.81,0,0,1,31.92-67.32,86.55,86.55,0,0,0-19.6,55V755.76a86.92,86.92,0,0,0,86.93,86.92H808.29A86.5,86.5,0,0,0,863.28,823.08Z"/><path class="cls-2" d="M149.39,700.92v57.94H69a36.76,36.76,0,0,1-36.75-36.75V473.86a36.61,36.61,0,0,1,5.34-19.09,36.54,36.54,0,0,1,19.08-5.33h92.69v54.24h-31a36.73,36.73,0,0,0-36.75,36.75V664.17a36.76,36.76,0,0,0,36.75,36.75Z"/><path class="cls-3" d="M149.39,503.68,143.23,516H106a36.55,36.55,0,0,0-19.08,5.34,36.72,36.72,0,0,1,31.41-17.66Z"/><path class="cls-3" d="M32.28,722.11A36.76,36.76,0,0,0,69,758.86h80.36l-6.16,12.32H56.7A36.75,36.75,0,0,1,20,734.44V486.18a36.74,36.74,0,0,1,17.67-31.41,36.61,36.61,0,0,0-5.34,19.09Z"/><path class="cls-3" d="M895.44,516H864.39V461.76h12.33v41.92h31a36.73,36.73,0,0,1,36.75,36.75V664.17a36.74,36.74,0,0,1-17.67,31.41,36.55,36.55,0,0,0,5.34-19.08V552.75A36.75,36.75,0,0,0,895.44,516Z"/><path class="cls-3" d="M976.16,753.52a36.74,36.74,0,0,1-31.41,17.66H864.39V713.25h12.33v45.61h80.36A36.55,36.55,0,0,0,976.16,753.52Z"/><path class="cls-2" d="M993.83,722.11a36.74,36.74,0,0,1-17.67,31.41c-11.62,7.07-12.35,5.34-99.44,5.34V700.92h31a36.76,36.76,0,0,0,36.75-36.75c0-135.6,1.85-131-5.34-142.83-13.34-21.91-35.55-17.66-62.46-17.66V449.44c90,0,102.09-4.35,111.77,5.33C998.73,465,993.83,469.16,993.83,722.11Z"/><path class="cls-4" d="M796,361.91a86.93,86.93,0,0,1,86.92,86.92V768.09a86.53,86.53,0,0,1-19.6,55,86.5,86.5,0,0,1-55,19.6H242.48a86.92,86.92,0,0,1-86.93-86.92V436.5a86.55,86.55,0,0,1,19.6-55,86.58,86.58,0,0,1,55-19.6Z"/><path class="cls-4" d="M796,361.91a86.93,86.93,0,0,1,86.92,86.92V768.09a86.53,86.53,0,0,1-19.6,55,86.5,86.5,0,0,1-55,19.6H242.48a86.92,86.92,0,0,1-86.93-86.92V436.5a86.55,86.55,0,0,1,19.6-55,86.58,86.58,0,0,1,55-19.6Z"/><path class="cls-5" d="M443.09,659.3c-18.08,18.08-49,53.33-108.89,53.33-119.86,0-178.57-145.25-94.85-229l14.05-14.05C263.77,480,438.54,654.75,443.09,659.3Z"/><circle class="cls-6" cx="348.24" cy="564.46" r="134.13"/><path class="cls-7" d="M442.79,564.46a94.6,94.6,0,0,1-122.18,90.43L323,589.71l-64.82,3.52a94.55,94.55,0,1,1,184.62-28.77Z"/><path d="M442.79,564.46a94.6,94.6,0,0,1-122.18,90.43l10.61-73.4-73.05,11.74a94.55,94.55,0,1,1,184.62-28.77Z"/><path class="cls-5" d="M772.58,659.92c-18.08,18.07-49,53.33-108.89,53.33-119.87,0-178.57-145.25-94.85-229l14-14Z"/><circle class="cls-6" cx="677.73" cy="565.07" r="134.13"/><path class="cls-7" d="M773.16,565.07a95.48,95.48,0,0,1-123.32,91.29l2.4-65.8-65.44,3.56a95.44,95.44,0,1,1,186.36-29Z"/><path d="M773.16,565.07a95.48,95.48,0,0,1-123.32,91.29l10.7-74.1L586.8,594.12a95.44,95.44,0,1,1,186.36-29Z"/><rect class="cls-8" x="357.73" y="342.19" width="24.66" height="19.72"/><rect class="cls-9" x="357.73" y="342.19" width="287.23" height="19.72"/><path class="cls-10" d="M501.34,259.59c58.21,0,105.4,37,105.4,82.6H395.94C395.94,296.57,443.13,259.59,501.34,259.59Z"/><rect class="cls-11" x="494.56" y="137.55" width="12.33" height="123.28"/><circle class="cls-12" cx="500.73" cy="137.55" r="13.56"/></svg>