<svg id="Layer_1" data-name="Layer 1" xmlns="http://www.w3.org/2000/svg" viewBox="0 0 1024 1024"><defs><style>.cls-1{fill:#9de0c3;}.cls-2{fill:#d4b4e0;}</style></defs><path class="cls-1" d="M253.57,285.2q-29.85,0-43.87,8.06T198.07,322.8l9,88.33a145.61,145.61,0,0,1,.6,14.92q0,39.4-24.18,59.39T114.51,512q47.15,7.17,70.43,26.26t23.27,58.49q0,4.18-1.19,16.12l-9,88.33q-2.4,20.89,11.93,29.24t43.57,8.36v65.65q-76.4,0-110.11-20.89t-33.73-69.83q0-6,1.2-19.1l9.55-93.7q0-27.45-21.79-39.09T37.52,550.2V473.8q82.95,0,83-50.73L110.93,330q-1.2-14.32-1.2-20.29,0-48.93,34-69.53t109.82-20.59Z"/><path class="cls-2" d="M485.14,416.21q-9-23.86-20.29-37.3t-30.44-21.19Q415.3,350,383.08,345.18l11.34-64.46q60.29,7.77,95.79,26t56.7,54Q568.09,396.51,583.62,461q23.86,98.47,46.85,155.48t54.61,97L592,743.28q-31.05-46-49.84-104.15T508.42,483.05L442.17,743.28l-93.11-22.09,105.05-305Z"/><path class="cls-1" d="M880.54,240.44q33.72,20.9,33.73,69.83,0,6-1.2,19.1l-9.55,93.7q0,50.73,83,50.73v76.4q-83,0-83,50.73L913.07,694q1.2,14.33,1.2,20.29,0,48.93-34,69.53T770.43,804.45V738.8q29.84,0,43.87-8.06t11.63-29.54L817,612.87a142.64,142.64,0,0,1-.6-14.92q0-39.41,24.18-59.39T910.09,512q-47.16-7.17-70.43-26.26t-23.28-58.49a158.41,158.41,0,0,1,.6-16.12l8.95-88.33q2.39-20.88-11.93-29.24t-43.57-8.36V219.55Q846.81,219.55,880.54,240.44Z"/></svg>