<svg id="Layer_1" data-name="Layer 1" xmlns="http://www.w3.org/2000/svg" viewBox="0 0 1024 1024"><defs><style>.cls-1{fill:#9fceb9;}.cls-2{fill:#9de0c3;}.cls-3,.cls-4,.cls-5{fill:none;stroke-miterlimit:10;}.cls-3{stroke:#000;stroke-width:0.25px;}.cls-4,.cls-5{stroke:#f9f9f9;stroke-linecap:round;}.cls-4{stroke-width:5px;}.cls-5{stroke-width:4px;}.cls-6{fill:#d4b4e0;}</style></defs><path class="cls-1" d="M684.58,886.91,63.17,675c-10.57-3.66-18.88-13.33-19-24.21V364.87c-.09-11.45,6.35-21.6,17.63-25l622.75-187.1Z"/><path class="cls-2" d="M935.43,755.28,701.1,885.44c-15.07,8.37-33.84-2.17-33.84-19V173.55c0-16.25,17.63-26.83,32.65-19.61l234.33,112.7a21.84,21.84,0,0,1,12.55,19.61v450A21.78,21.78,0,0,1,935.43,755.28Z"/><line class="cls-3" x1="827.03" y1="237.96" x2="827.03" y2="792.06"/><line class="cls-4" x1="747.14" y1="205.75" x2="747.14" y2="827.78"/><line class="cls-5" x1="886.91" y1="262.11" x2="886.91" y2="762.48"/><line class="cls-4" x1="787.08" y1="221.86" x2="787.08" y2="810.65"/><line class="cls-5" x1="856.97" y1="250.03" x2="856.97" y2="778.11"/><path class="cls-6" d="M392.56,598.13,146.49,559.59a18.58,18.58,0,0,1-17.17-18.52v-114a18.56,18.56,0,0,1,16.3-18.43l246.07-30.32a18.57,18.57,0,0,1,20.84,18.43V579.62A18.57,18.57,0,0,1,392.56,598.13Z"/></svg>