<svg id="Layer_1" data-name="Layer 1" xmlns="http://www.w3.org/2000/svg" viewBox="0 0 1024 1024"><defs><style>.cls-1{fill:#9de0c3;}.cls-2{fill:#d4b4e0;}</style></defs><path class="cls-1" d="M360,805a377.93,377.93,0,0,1-57-15.23,39.86,39.86,0,0,1-3.91-18.27l.78-47.85c.51-30.73-33-50-59.32-34.25L199.5,714a39.73,39.73,0,0,1-17.66,5.72A384.93,384.93,0,0,1,140,677.94a39.56,39.56,0,0,1,5.72-17.66l24.62-41c15.79-26.36-3.52-59.83-34.26-59.32l-47.85.79A39.67,39.67,0,0,1,70,556.79a377,377,0,0,1-15.24-57,39.72,39.72,0,0,1,13.82-12.47l41.84-23.23c26.88-14.93,26.88-53.58,0-68.51L68.57,372.31a39.72,39.72,0,0,1-13.82-12.47A377,377,0,0,1,70,302.8a39.67,39.67,0,0,1,18.26-3.92l47.85.79c30.74.5,50.05-33,34.26-59.33l-24.62-41A39.56,39.56,0,0,1,140,181.65a384.93,384.93,0,0,1,41.82-41.82,39.73,39.73,0,0,1,17.66,5.72l41,24.62c26.36,15.8,59.83-3.52,59.32-34.25l-.78-47.85A39.86,39.86,0,0,1,303,69.8a376.75,376.75,0,0,1,57-15.23,39.62,39.62,0,0,1,12.46,13.82l23.24,41.84c14.92,26.87,53.58,26.87,68.5,0l23.24-41.84a39.62,39.62,0,0,1,12.46-13.82A376.75,376.75,0,0,1,557,69.8a39.74,39.74,0,0,1,3.91,18.27l-.78,47.85c-.51,30.73,33,50.05,59.32,34.25l41-24.62a39.73,39.73,0,0,1,17.66-5.72,384.93,384.93,0,0,1,41.82,41.82,39.56,39.56,0,0,1-5.72,17.66l-24.61,41c-15.8,26.37,3.51,59.83,34.25,59.33l47.85-.79A39.67,39.67,0,0,1,790,302.8a377,377,0,0,1,15.24,57,39.72,39.72,0,0,1-13.82,12.47l-41.84,23.23c-26.88,14.93-26.88,53.58,0,68.51l41.84,23.23a39.72,39.72,0,0,1,13.82,12.47,377,377,0,0,1-15.24,57,39.67,39.67,0,0,1-18.26,3.92l-47.85-.79c-30.74-.51-50.05,33-34.25,59.32l24.61,41a39.56,39.56,0,0,1,5.72,17.66,384.93,384.93,0,0,1-41.82,41.82A39.73,39.73,0,0,1,660.46,714l-41-24.62c-26.36-15.8-59.83,3.52-59.32,34.25l.78,47.85A39.74,39.74,0,0,1,557,789.79,377.93,377.93,0,0,1,499.93,805a39.62,39.62,0,0,1-12.46-13.82l-23.24-41.84c-14.92-26.87-53.58-26.87-68.5,0L372.49,791.2A39.62,39.62,0,0,1,360,805ZM244.39,615.39a52.5,52.5,0,1,0,0-74.24A52.52,52.52,0,0,0,244.39,615.39Zm297-296.95a52.49,52.49,0,1,0,0-74.24A52.49,52.49,0,0,0,541.34,318.44ZM430,692.26a52.5,52.5,0,1,0-52.49-52.49A52.49,52.49,0,0,0,430,692.26Zm0-419.95a52.49,52.49,0,1,0-52.49-52.49A52.49,52.49,0,0,0,430,272.31ZM615.57,615.39a52.49,52.49,0,1,0-74.23,0A52.5,52.5,0,0,0,615.57,615.39ZM318.63,318.44a52.5,52.5,0,1,0-74.24,0A52.5,52.5,0,0,0,318.63,318.44ZM692.45,429.79a52.5,52.5,0,1,0-52.5,52.5A52.5,52.5,0,0,0,692.45,429.79Zm-419.95,0A52.49,52.49,0,1,0,220,482.29,52.49,52.49,0,0,0,272.5,429.79Zm262.47,0a105,105,0,1,0-105,105A105,105,0,0,0,535,429.79Z"/><path class="cls-2" d="M851.79,954.25A165,165,0,0,1,827.65,960l-36-40.85a26.07,26.07,0,0,0-30.08-6.62l-49.8,22a163,163,0,0,1-36.56-33.31l17.38-51.63a26.09,26.09,0,0,0-9.32-29.36l-44-32.17A163.24,163.24,0,0,1,650,739.7L703.31,729a26.09,26.09,0,0,0,20.76-22.75l5.87-54.14a165.55,165.55,0,0,1,47.15-15l36,40.85a26.09,26.09,0,0,0,30.08,6.61l49.8-22a162.81,162.81,0,0,1,36.56,33.32l-17.38,51.62a26.1,26.1,0,0,0,9.32,29.37l44,32.16a163.17,163.17,0,0,1-10.66,48.3L901.43,868.1a26.1,26.1,0,0,0-20.76,22.75L874.8,945A165.47,165.47,0,0,1,851.79,954.25Zm4.12-172.71a56.17,56.17,0,1,0-36.55,70.53A56.16,56.16,0,0,0,855.91,781.54Z"/></svg>