<svg id="Layer_1" data-name="Layer 1" xmlns="http://www.w3.org/2000/svg" viewBox="0 0 2048 1024"><defs><style>.cls-1{fill:#d4b4e0;}.cls-2{fill:#9de0c3;}.cls-3{fill:none;stroke:gray;stroke-miterlimit:10;}</style></defs><path class="cls-1" d="M309.46,632.55c-35,0-70.12-8.33-104.93-23.32-13.18-5.67-23.31,1.46-23.31,13.11V816.17c0,20.4-11.66,32.06-32.06,32.06H101.07C80.66,848.23,69,836.57,69,816.17V396.46c0-125.32,96.18-236.07,240.45-236.07S549.91,271.14,549.91,396.46,453.73,632.55,309.46,632.55Zm0-368.69c-81.61,0-128.24,67-128.24,132.6s46.63,132.62,128.24,132.62,128.24-67,128.24-132.62S391.07,263.86,309.46,263.86Z"/><path class="cls-1" d="M958.48,848.23H541.69c-20.4,0-32.06-11.66-32.06-32.06V784.11c0-20.41,11.66-32.06,32.06-32.06h121c20.4,0,32.06-11.66,32.06-32.06V303.2c0-20.4-11.66-32.06-32.06-32.06H589.78c-20.4,0-32.06-11.66-32.06-32.06V207c0-20.4,11.66-32.06,32.06-32.06H910.39c20.4,0,32.05,11.66,32.05,32.06v32.06c0,20.4-11.65,32.06-32.05,32.06H837.52c-20.4,0-32.06,11.66-32.06,32.06V720c0,20.4,11.66,32.06,32.06,32.06h121c20.4,0,32.06,11.65,32.06,32.06v32.06C990.54,836.57,978.88,848.23,958.48,848.23Z"/><path class="cls-1" d="M1231.13,862.8c-144.28,0-240.45-110.75-240.45-236.08V396.46c0-125.32,96.17-236.07,240.45-236.07s201.1,100.55,212.76,126.78c5.83,13.12,8.74,32.06-8.74,43.72l-35,24.77c-16,11.66-32.06,10.2-43.72-7.28-13.11-20.4-43.71-84.52-125.32-84.52s-128.24,67-128.24,132.6V626.72c0,65.58,46.63,132.61,128.24,132.61s109.29-59.75,125.32-81.6c13.12-19,27.69-21.87,43.72-11.67l33.52,23.32c18.94,13.12,21.57,27.53,13.12,43.72C1430.2,764.87,1375.4,862.8,1231.13,862.8Z"/><path class="cls-1" d="M1729.54,862.8c-144.26,0-240.45-110.75-240.45-236.08V396.46c0-125.32,96.19-236.07,240.45-236.07S1970,271.14,1970,396.46V626.72C1970,752.05,1873.81,862.8,1729.54,862.8Zm128.25-466.34c0-65.57-46.64-132.6-128.25-132.6s-128.24,67-128.24,132.6V626.72c0,65.58,46.64,132.61,128.24,132.61s128.25-67,128.25-132.61Z"/><path class="cls-2" d="M329.46,612.55c-35,0-70.12-8.33-104.93-23.32-13.18-5.67-23.31,1.46-23.31,13.11V796.17c0,20.4-11.66,32.06-32.06,32.06H121.07c-20.41,0-32.06-11.66-32.06-32.06V376.46c0-125.32,96.18-236.07,240.45-236.07S569.91,251.14,569.91,376.46,473.73,612.55,329.46,612.55Zm0-368.69c-81.61,0-128.24,67-128.24,132.6s46.63,132.62,128.24,132.62,128.24-67,128.24-132.62S411.07,243.86,329.46,243.86Z"/><path class="cls-2" d="M978.48,828.23H561.69c-20.4,0-32.06-11.66-32.06-32.06V764.11c0-20.41,11.66-32.06,32.06-32.06h121c20.4,0,32.06-11.66,32.06-32.06V283.2c0-20.4-11.66-32.06-32.06-32.06H609.78c-20.4,0-32.06-11.66-32.06-32.06V187c0-20.4,11.66-32.06,32.06-32.06H930.39c20.4,0,32.05,11.66,32.05,32.06v32.06c0,20.4-11.65,32.06-32.05,32.06H857.52c-20.4,0-32.06,11.66-32.06,32.06V700c0,20.4,11.66,32.06,32.06,32.06h121c20.4,0,32.06,11.65,32.06,32.06v32.06C1010.54,816.57,998.88,828.23,978.48,828.23Z"/><path class="cls-2" d="M1251.13,842.8c-144.28,0-240.45-110.75-240.45-236.08V376.46c0-125.32,96.17-236.07,240.45-236.07s201.1,100.55,212.76,126.78c5.83,13.12,8.74,32.06-8.74,43.72l-35,24.77c-16,11.66-32.06,10.2-43.72-7.28-13.11-20.4-43.71-84.52-125.32-84.52s-128.24,67-128.24,132.6V606.72c0,65.58,46.63,132.61,128.24,132.61s109.29-59.75,125.32-81.6c13.12-19,27.69-21.87,43.72-11.67l33.52,23.32c18.94,13.12,21.57,27.53,13.12,43.72C1450.2,744.87,1395.4,842.8,1251.13,842.8Z"/><path class="cls-2" d="M1749.54,842.8c-144.26,0-240.45-110.75-240.45-236.08V376.46c0-125.32,96.19-236.07,240.45-236.07S1990,251.14,1990,376.46V606.72C1990,732.05,1893.81,842.8,1749.54,842.8Zm128.25-466.34c0-65.57-46.64-132.6-128.25-132.6s-128.24,67-128.24,132.6V606.72c0,65.58,46.64,132.61,128.24,132.61s128.25-67,128.25-132.61Z"/><path class="cls-3" d="M309.46,632.55c-35,0-70.12-8.33-104.93-23.32-13.18-5.67-23.31,1.46-23.31,13.11V816.17c0,20.4-11.66,32.06-32.06,32.06H101.07C80.66,848.23,69,836.57,69,816.17V396.46c0-125.32,96.18-236.07,240.45-236.07S549.91,271.14,549.91,396.46,453.73,632.55,309.46,632.55Zm0-368.69c-81.61,0-128.24,67-128.24,132.6s46.63,132.62,128.24,132.62,128.24-67,128.24-132.62S391.07,263.86,309.46,263.86Z"/><path class="cls-3" d="M958.48,848.23H541.69c-20.4,0-32.06-11.66-32.06-32.06V784.11c0-20.41,11.66-32.06,32.06-32.06h121c20.4,0,32.06-11.66,32.06-32.06V303.2c0-20.4-11.66-32.06-32.06-32.06H589.78c-20.4,0-32.06-11.66-32.06-32.06V207c0-20.4,11.66-32.06,32.06-32.06H910.39c20.4,0,32.05,11.66,32.05,32.06v32.06c0,20.4-11.65,32.06-32.05,32.06H837.52c-20.4,0-32.06,11.66-32.06,32.06V720c0,20.4,11.66,32.06,32.06,32.06h121c20.4,0,32.06,11.65,32.06,32.06v32.06C990.54,836.57,978.88,848.23,958.48,848.23Z"/><path class="cls-3" d="M1231.13,862.8c-144.28,0-240.45-110.75-240.45-236.08V396.46c0-125.32,96.17-236.07,240.45-236.07s201.1,100.55,212.76,126.78c5.83,13.12,8.74,32.06-8.74,43.72l-35,24.77c-16,11.66-32.06,10.2-43.72-7.28-13.11-20.4-43.71-84.52-125.32-84.52s-128.24,67-128.24,132.6V626.72c0,65.58,46.63,132.61,128.24,132.61s109.29-59.75,125.32-81.6c13.12-19,27.69-21.87,43.72-11.67l33.52,23.32c18.94,13.12,21.57,27.53,13.12,43.72C1430.2,764.87,1375.4,862.8,1231.13,862.8Z"/><path class="cls-3" d="M1729.54,862.8c-144.26,0-240.45-110.75-240.45-236.08V396.46c0-125.32,96.19-236.07,240.45-236.07S1970,271.14,1970,396.46V626.72C1970,752.05,1873.81,862.8,1729.54,862.8Zm128.25-466.34c0-65.57-46.64-132.6-128.25-132.6s-128.24,67-128.24,132.6V626.72c0,65.58,46.64,132.61,128.24,132.61s128.25-67,128.25-132.61Z"/><path d="M329.46,141.39c34.83,0,67.82,6.45,98.05,19.18a228.05,228.05,0,0,1,75.56,51.56,230.55,230.55,0,0,1,48.63,74.95,240.73,240.73,0,0,1,0,178.77,230.7,230.7,0,0,1-48.63,75,228,228,0,0,1-75.56,51.55c-30.23,12.73-63.22,19.19-98.05,19.19-33.56,0-68.73-7.82-104.53-23.24a23.57,23.57,0,0,0-9.27-2.07,15.2,15.2,0,0,0-11.17,4.54,16.63,16.63,0,0,0-4.27,11.56V796.17c0,9.87-2.72,17.6-8.09,23s-13.09,8.09-23,8.09H121.07c-9.88,0-17.61-2.72-23-8.09S90,806,90,796.17V376.46a238.27,238.27,0,0,1,17.21-89.38,230.55,230.55,0,0,1,48.63-74.95,228.05,228.05,0,0,1,75.56-51.56c30.23-12.73,63.22-19.18,98-19.18m0,368.69a130,130,0,0,0,54.88-11.59A121.14,121.14,0,0,0,424.94,468c21.45-24.49,33.76-57.87,33.76-91.56s-12.31-67-33.76-91.55a121.24,121.24,0,0,0-40.6-30.46,135.75,135.75,0,0,0-109.77,0A121.3,121.3,0,0,0,234,284.91c-21.45,24.5-33.76,57.87-33.76,91.55S212.53,443.52,234,468a121.2,121.2,0,0,0,40.59,30.47,130.11,130.11,0,0,0,54.89,11.59m0-369.69C185.19,140.39,89,251.14,89,376.46V796.17c0,20.4,11.65,32.06,32.06,32.06h48.09c20.4,0,32.06-11.66,32.06-32.06V602.34c0-8.85,5.85-15.1,14.44-15.1a22.57,22.57,0,0,1,8.87,2c34.81,15,70,23.32,104.93,23.32,144.27,0,240.45-110.76,240.45-236.09S473.73,140.39,329.46,140.39Zm0,368.69c-81.61,0-128.24-67-128.24-132.62s46.63-132.6,128.24-132.6,128.24,67,128.24,132.6S411.07,509.08,329.46,509.08Z"/><path d="M930.39,156c9.87,0,17.6,2.72,23,8.08s8.08,13.1,8.08,23v32.06c0,9.88-2.72,17.61-8.08,23s-13.1,8.09-23,8.09H857.52c-21,0-33.06,12.05-33.06,33.06V700c0,21,12,33.06,33.06,33.06h121c9.88,0,17.61,2.72,23,8.08s8.09,13.1,8.09,23v32.06c0,9.87-2.72,17.6-8.09,23s-13.09,8.09-23,8.09H561.69c-9.88,0-17.61-2.72-23-8.09s-8.08-13.1-8.08-23V764.11c0-9.88,2.72-17.61,8.08-23s13.1-8.08,23-8.08h121c21,0,33.06-12,33.06-33.06V283.2c0-21-12.05-33.06-33.06-33.06H609.78c-9.88,0-17.61-2.72-23-8.09s-8.09-13.09-8.09-23V187c0-9.88,2.72-17.61,8.09-23s13.09-8.08,23-8.08H930.39m0-1H609.78c-20.4,0-32.06,11.66-32.06,32.06v32.06c0,20.4,11.66,32.06,32.06,32.06h72.87c20.4,0,32.06,11.66,32.06,32.06V700c0,20.4-11.66,32.06-32.06,32.06h-121c-20.4,0-32.06,11.65-32.06,32.06v32.06c0,20.4,11.66,32.06,32.06,32.06H978.48c20.4,0,32.06-11.66,32.06-32.06V764.11c0-20.41-11.66-32.06-32.06-32.06h-121c-20.4,0-32.06-11.66-32.06-32.06V283.2c0-20.4,11.66-32.06,32.06-32.06h72.87c20.4,0,32.05-11.66,32.05-32.06V187c0-20.4-11.65-32.06-32.05-32.06Z"/><path d="M1251.13,141.39c33.18,0,64.17,5.4,92.11,16.05a219,219,0,0,1,63.35,37.27c35.61,30,52.16,63.36,56.38,72.87,2.39,5.37,5.07,13.53,4.29,21.9-.79,8.58-5.06,15.5-12.69,20.59l-35,24.78c-6.7,4.87-13.25,7.35-19.49,7.35-8.77,0-16.45-4.84-22.8-14.36-1.17-1.83-2.47-4-4-6.49-7.72-12.78-19.38-32.11-38.67-48.6-23.21-19.84-51.3-29.89-83.51-29.89a130.07,130.07,0,0,0-54.89,11.59,121.2,121.2,0,0,0-40.59,30.46c-21.46,24.5-33.76,57.87-33.76,91.55V606.72c0,33.69,12.3,67.06,33.76,91.55a121.1,121.1,0,0,0,40.59,30.47,130.07,130.07,0,0,0,54.89,11.59c31.17,0,58.19-8.87,80.33-26.37,18.73-14.8,30.57-32.8,39.21-45.94,2.47-3.75,4.61-7,6.6-9.72,7.82-11.3,16.42-17,25.56-17,5.28,0,10.93,1.9,16.77,5.61l33.52,23.33c17.52,12.13,21.59,25.61,12.8,42.43-10.49,20.07-28.1,49.84-59.72,76.46-41.56,35-93.73,52.7-155.07,52.7-34.83,0-67.82-6.46-98.05-19.19a227.92,227.92,0,0,1-75.56-51.55,230.6,230.6,0,0,1-48.63-74.95,238.32,238.32,0,0,1-17.21-89.39V376.46a238.27,238.27,0,0,1,17.21-89.38,230.39,230.39,0,0,1,48.63-74.95,228,228,0,0,1,75.56-51.56c30.23-12.73,63.22-19.18,98.05-19.18m0-1c-144.28,0-240.45,110.75-240.45,236.07V606.72c0,125.33,96.17,236.08,240.45,236.08s199.07-97.93,215.68-129.7c8.45-16.19,5.82-30.6-13.12-43.72l-33.52-23.32c-6-3.81-11.76-5.79-17.34-5.79-9.37,0-18.16,5.58-26.38,17.46-16,21.85-43.71,81.6-125.32,81.6s-128.24-67-128.24-132.61V376.46c0-65.57,46.63-132.6,128.24-132.6s112.21,64.12,125.32,84.52c6.71,10.06,14.87,14.82,23.64,14.82,6.47,0,13.28-2.59,20.08-7.54l35-24.77c17.48-11.66,14.57-30.6,8.74-43.72-11.66-26.23-68.49-126.78-212.76-126.78Z"/><path d="M1749.54,141.39c34.83,0,67.82,6.45,98,19.18a228.09,228.09,0,0,1,75.57,51.56,230.72,230.72,0,0,1,48.63,74.95A238.27,238.27,0,0,1,1989,376.46V606.72a238.32,238.32,0,0,1-17.21,89.39,230.93,230.93,0,0,1-48.63,74.95,228.06,228.06,0,0,1-75.57,51.55c-30.23,12.73-63.22,19.19-98,19.19s-67.81-6.46-98-19.19a228.06,228.06,0,0,1-75.57-51.55,230.93,230.93,0,0,1-48.63-74.95,238.32,238.32,0,0,1-17.21-89.39V376.46a238.27,238.27,0,0,1,17.21-89.38,230.72,230.72,0,0,1,48.63-74.95,228.09,228.09,0,0,1,75.57-51.56c30.23-12.73,63.21-19.18,98-19.18m0,598.94a130.07,130.07,0,0,0,54.89-11.59A121.1,121.1,0,0,0,1845,698.27c21.46-24.49,33.77-57.86,33.77-91.55V376.46c0-33.68-12.31-67-33.77-91.55a121.2,121.2,0,0,0-40.59-30.46,135.75,135.75,0,0,0-109.77,0,121.2,121.2,0,0,0-40.59,30.46c-21.46,24.5-33.77,57.87-33.77,91.55V606.72c0,33.69,12.31,67.06,33.77,91.55a121.1,121.1,0,0,0,40.59,30.47,130.06,130.06,0,0,0,54.88,11.59m0-599.94c-144.26,0-240.45,110.75-240.45,236.07V606.72c0,125.33,96.19,236.08,240.45,236.08S1990,732.05,1990,606.72V376.46c0-125.32-96.19-236.07-240.46-236.07Zm0,598.94c-81.6,0-128.24-67-128.24-132.61V376.46c0-65.57,46.64-132.6,128.24-132.6s128.25,67,128.25,132.6V606.72c0,65.58-46.64,132.61-128.25,132.61Z"/></svg>