<svg id="Layer_1" data-name="Layer 1" xmlns="http://www.w3.org/2000/svg" xmlns:xlink="http://www.w3.org/1999/xlink" viewBox="0 0 1024 1024"><defs><style>.cls-1{fill:#c7b2b2;}.cls-2{fill:#d4b4e0;}.cls-3{fill:#e0a8c4;}.cls-14,.cls-4{fill:none;stroke-linecap:round;stroke-miterlimit:10;}.cls-4{stroke:#f2f2f2;stroke-width:4px;}.cls-5{fill:#9de0c3;}.cls-6{fill:#e5e5e5;}.cls-7{fill:#fff;}.cls-8{fill:#333;}.cls-9{fill:url(#linear-gradient);}.cls-10{fill:url(#linear-gradient-2);}.cls-11{fill:url(#linear-gradient-3);}.cls-12{fill:url(#linear-gradient-4);}.cls-13{fill:url(#linear-gradient-5);}.cls-14{stroke:#f7f4f9;stroke-width:12px;}</style><linearGradient id="linear-gradient" x1="373.56" y1="307.4" x2="397.26" y2="307.4" gradientUnits="userSpaceOnUse"><stop offset="0" stop-color="#c7b2b2"/><stop offset="0.04" stop-color="#bfbbb5"/><stop offset="0.15" stop-color="#b0ccbb"/><stop offset="0.29" stop-color="#a5d7c0"/><stop offset="0.47" stop-color="#9fdec2"/><stop offset="1" stop-color="#9de0c3"/></linearGradient><linearGradient id="linear-gradient-2" x1="373.56" y1="307.4" x2="649.6" y2="307.4" gradientUnits="userSpaceOnUse"><stop offset="0" stop-color="#c7b2b2"/><stop offset="0.09" stop-color="#c7b2b2"/><stop offset="0.1" stop-color="#c7b2b2"/><stop offset="0.12" stop-color="#bfbbb5"/><stop offset="0.16" stop-color="#b0ccbb"/><stop offset="0.21" stop-color="#a5d7c0"/><stop offset="0.29" stop-color="#9fdec2"/><stop offset="0.5" stop-color="#9de0c3"/><stop offset="0.57" stop-color="#9de0c3"/><stop offset="1" stop-color="#9de0c3"/></linearGradient><linearGradient id="linear-gradient-3" x1="410.29" y1="258.24" x2="612.87" y2="258.24" gradientUnits="userSpaceOnUse"><stop offset="0" stop-color="#e0a8c4"/><stop offset="0.09" stop-color="#e0a8c4"/><stop offset="0.1" stop-color="#e0a8c4"/><stop offset="0.12" stop-color="#ddabcc"/><stop offset="0.18" stop-color="#d8b0d7"/><stop offset="0.27" stop-color="#d5b3de"/><stop offset="0.5" stop-color="#d4b4e0"/><stop offset="0.57" stop-color="#d4b4e0"/><stop offset="1" stop-color="#d4b4e0"/></linearGradient><linearGradient id="linear-gradient-4" x1="505.07" y1="160.5" x2="516.91" y2="160.5" xlink:href="#linear-gradient-3"/><linearGradient id="linear-gradient-5" x1="497.96" y1="101.26" x2="524.02" y2="101.26" gradientUnits="userSpaceOnUse"><stop offset="0" stop-color="#8f0000"/><stop offset="0.06" stop-color="#8f0202"/><stop offset="0.08" stop-color="#8e0909"/><stop offset="0.09" stop-color="#8d1414"/><stop offset="0.1" stop-color="#8c1f1f"/><stop offset="0.1" stop-color="#901f1f"/><stop offset="0.13" stop-color="#ab2121"/><stop offset="0.16" stop-color="#c12323"/><stop offset="0.2" stop-color="#d22424"/><stop offset="0.25" stop-color="#dd2424"/><stop offset="0.32" stop-color="#e42525"/><stop offset="0.5" stop-color="#e62525"/><stop offset="0.52" stop-color="#eb2626"/><stop offset="0.6" stop-color="#f62828"/><stop offset="0.7" stop-color="#fd2929"/><stop offset="1" stop-color="#ff2929"/></linearGradient></defs><path class="cls-1" d="M859.41,760.08a83.4,83.4,0,0,1-64.69,30.69H251a83.54,83.54,0,0,1-83.54-83.54V400.42a83.41,83.41,0,0,1,30.69-64.7,83.13,83.13,0,0,0-18.84,52.85V695.39a83.53,83.53,0,0,0,83.53,83.53H806.56A83.13,83.13,0,0,0,859.41,760.08Z"/><path class="cls-2" d="M173.35,642.68v55.68H96.11A35.32,35.32,0,0,1,60.8,663V424.47a35.1,35.1,0,0,1,5.13-18.34A35.1,35.1,0,0,1,84.27,401h89.08v52.12H143.5a35.31,35.31,0,0,0-35.31,35.32V607.36a35.32,35.32,0,0,0,35.31,35.32Z"/><path class="cls-3" d="M173.35,453.12,167.42,465H131.66a35.1,35.1,0,0,0-18.34,5.13,35.29,35.29,0,0,1,30.18-17Z"/><path class="cls-3" d="M60.8,663a35.32,35.32,0,0,0,35.31,35.32h77.24l-5.93,11.85H84.27A35.33,35.33,0,0,1,49,674.89V436.31a35.29,35.29,0,0,1,17-30.18,35.1,35.1,0,0,0-5.13,18.34Z"/><path class="cls-3" d="M890.32,465H860.48V412.84h11.85v40.28h29.84a35.31,35.31,0,0,1,35.31,35.32V607.36a35.33,35.33,0,0,1-17,30.19,35.13,35.13,0,0,0,5.13-18.34V500.29A35.31,35.31,0,0,0,890.32,465Z"/><path class="cls-3" d="M967.9,693.23a35.32,35.32,0,0,1-30.19,17H860.48V654.53h11.85v43.83h77.23A35.16,35.16,0,0,0,967.9,693.23Z"/><path class="cls-2" d="M984.87,663a35.32,35.32,0,0,1-17,30.19c-11.17,6.79-11.87,5.13-95.57,5.13V642.68h29.84a35.32,35.32,0,0,0,35.31-35.32c0-130.31,1.78-125.9-5.13-137.26-12.82-21.06-34.15-17-60-17V401c86.48,0,98.11-4.18,107.41,5.13C989.58,416,984.87,420,984.87,663Z"/><path class="cls-4" d="M946.86,407.13c26.28-.09,30.55,1.82,31.5,21"/><path class="cls-4" d="M931.74,407.34l8.62-.15"/><path class="cls-5" d="M794.72,316.88a83.54,83.54,0,0,1,83.53,83.54V707.23a83.13,83.13,0,0,1-18.84,52.85,83.13,83.13,0,0,1-52.85,18.84H262.8a83.53,83.53,0,0,1-83.53-83.53V388.57a83.13,83.13,0,0,1,18.84-52.85A83.13,83.13,0,0,1,251,316.88Z"/><path class="cls-6" d="M455.6,602.68c-17.37,17.37-47.06,51.25-104.65,51.25-115.19,0-171.61-139.59-91.15-220l13.5-13.49Z"/><circle class="cls-7" cx="364.45" cy="511.53" r="128.9"/><path class="cls-8" d="M455.31,511.53a90.91,90.91,0,0,1-117.42,86.91l2.29-62.64-62.3,3.39a90.87,90.87,0,1,1,177.43-27.66Z"/><path d="M455.31,511.53a90.91,90.91,0,0,1-117.42,86.91l10.19-70.54-70.2,11.29a90.87,90.87,0,1,1,177.43-27.66Z"/><path class="cls-6" d="M772.24,603.28c-17.37,17.37-47.06,51.25-104.64,51.25-115.19,0-171.62-139.6-91.15-220,.66-.67,13-13,13.5-13.5Z"/><circle class="cls-7" cx="681.1" cy="512.13" r="128.9"/><path class="cls-8" d="M772.81,512.13a91.76,91.76,0,0,1-118.52,87.72l2.31-63.23L593.71,540a91.72,91.72,0,1,1,179.1-27.91Z"/><path d="M772.81,512.13a91.76,91.76,0,0,1-118.52,87.72l10.29-71.2L593.71,540a91.72,91.72,0,1,1,179.1-27.91Z"/><rect class="cls-9" x="373.56" y="297.93" width="23.69" height="18.96"/><rect class="cls-10" x="373.56" y="297.93" width="276.04" height="18.96"/><path class="cls-11" d="M511.58,218.55c55.94,0,101.29,35.54,101.29,79.38H410.29C410.29,254.09,455.64,218.55,511.58,218.55Z"/><rect class="cls-12" x="505.07" y="101.26" width="11.85" height="118.47"/><circle class="cls-13" cx="510.99" cy="101.26" r="13.03"/><path class="cls-14" d="M777.11,340h7.61c50.7,0,70.39,37.58,70.39,70.4v17.75"/><line class="cls-14" x1="757.61" y1="340.02" x2="722.74" y2="340.02"/><line class="cls-14" x1="855.11" y1="445.74" x2="855.11" y2="447.17"/></svg>